<?xml version="1.0" standalone="no"?><!DOCTYPE svg PUBLIC "-//W3C//DTD SVG 1.1//EN" "http://www.w3.org/Graphics/SVG/1.1/DTD/svg11.dtd"><svg t="1615200236224" class="icon" viewBox="0 0 1024 1024" version="1.1" xmlns="http://www.w3.org/2000/svg" p-id="3442" xmlns:xlink="http://www.w3.org/1999/xlink" width="32" height="32"><defs><style type="text/css"></style></defs><path d="M807.733157 265.820972C780.758221 151.024723 697.78192 0 511.947308 0c-142.731458 0-212.831373 64.600171-246.484569 118.942882a254.166752 254.166752 0 0 0-28.982779 67.655583C146.999994 212.56948 31.810906 285.462916 31.810906 440.197783a262.852856 262.852856 0 0 0 171.234101 253.599318A438.670077 438.670077 0 0 0 359.176635 726.315431h21.824382v-66.127878h-21.824382s-261.892583 0-261.892583-219.98977c0-176.122762 196.419437-198.165388 196.419437-198.165387s0-176.122762 218.243819-176.122763 240.068201 264.293265 240.068202 264.293266a129.94237 129.94237 0 0 1 18.157885-1.09122c44.696334 0 156.43717 14.185848 156.43717 155.171356 0 175.904518-261.892583 175.904518-261.892583 175.904518h-43.648764v66.127878h43.648764c113.224893 0 327.365729-50.632566 327.365729-242.032396 0-143.604433-92.448082-205.585678-184.350554-218.462063zM380.499056 825.179881a29.746633 29.746633 0 0 0-22.697357-10.475704 30.663257 30.663257 0 0 0-21.518841 8.729753 33.282182 33.282182 0 0 0-1.505882 46.704177l131.120887 142.949702a62.85422 62.85422 0 0 0 63.90179 0.872975l141.858482-146.005115a33.216709 33.216709 0 0 0-0.414663-46.704177 35.922933 35.922933 0 0 0-49.017562 0.654731L533.77169 909.858483V445.872123a32.736573 32.736573 0 1 0-65.473145 0v478.390452z" p-id="3443"></path></svg>