<?xml version="1.0" standalone="no"?><!DOCTYPE svg PUBLIC "-//W3C//DTD SVG 1.1//EN" "http://www.w3.org/Graphics/SVG/1.1/DTD/svg11.dtd"><svg t="1615200228383" class="icon" viewBox="0 0 1156 1024" version="1.1" xmlns="http://www.w3.org/2000/svg" p-id="3291" xmlns:xlink="http://www.w3.org/1999/xlink" width="36.125" height="32"><defs><style type="text/css"></style></defs><path d="M934.108439 321.280657C901.638865 182.838379 801.760774 0 578.072728 0c-171.805028 0-256.157619 78.284248-296.692047 143.958953a302.891739 302.891739 0 0 0-34.886403 81.699333C138.787762 256.919446 0.135325 345.186249 0.135325 531.96511A317.077476 317.077476 0 0 0 206.248819 838.271934 524.740893 524.740893 0 0 0 394.183554 877.676757h26.269882v-79.860441h-26.269882s-315.238584 0-315.238583-265.851206c0-212.786044 236.428938-239.318625 236.428937-239.318625s0-212.786044 262.69882-212.786044 288.968702 319.179066 288.968702 319.179066a194.896254 194.896254 0 0 1 21.856542-1.050795c53.800718 0 188.302514 17.075423 188.302514 187.304259 0 212.523345-315.238584 212.523345-315.238584 212.523345h-52.539764v79.860441h52.539764c136.288148 0 394.04823-61.208825 394.04823-292.383786 0-173.381221-111.25295-248.513084-221.901693-264.012314z m-220.667009 204.64238a39.404823 39.404823 0 0 0 55.69215 2.101591 40.06157 40.06157 0 0 0 2.20667-56.217547l-157.619292-173.118523a39.010775 39.010775 0 0 0-38.590456-11.03335 39.536172 39.536172 0 0 0-38.170139 10.245254l-170.754233 176.270908a40.324269 40.324269 0 0 0 0.499128 56.480246 39.404823 39.404823 0 0 0 55.71842-0.525397l103.240636-106.655721v560.599281a39.404823 39.404823 0 1 0 78.809646 0V406.395074z" p-id="3292"></path></svg>